<svg aria-hidden="true" style="position: absolute; width: 0; height: 0; overflow: hidden;" version="1.1" xmlns="http://www.w3.org/2000/svg" xmlns:xlink="http://www.w3.org/1999/xlink">
<defs>
<symbol id="icon-chevron-small-right" viewBox="0 0 20 20">
<path d="M11 10l-3.141-3.42c-0.268-0.27-0.268-0.707 0-0.978 0.268-0.27 0.701-0.27 0.969 0l3.83 3.908c0.268 0.271 0.268 0.709 0 0.979l-3.83 3.908c-0.267 0.272-0.701 0.27-0.969 0s-0.268-0.707 0-0.978l3.141-3.419z"></path>
</symbol>
<symbol id="icon-chevron-small-left" viewBox="0 0 20 20">
<path d="M12.141 13.418c0.268 0.271 0.268 0.709 0 0.978s-0.701 0.272-0.969 0l-3.83-3.908c-0.268-0.27-0.268-0.707 0-0.979l3.83-3.908c0.267-0.27 0.701-0.27 0.969 0s0.268 0.709 0 0.978l-3.141 3.421 3.141 3.418z"></path>
</symbol>
<symbol id="icon-chevron-small-down" viewBox="0 0 20 20">
<path d="M13.418 7.859c0.271-0.268 0.709-0.268 0.978 0s0.272 0.701 0 0.969l-3.908 3.83c-0.27 0.268-0.707 0.268-0.979 0l-3.908-3.83c-0.27-0.267-0.27-0.701 0-0.969s0.709-0.268 0.978 0l3.421 3.141 3.418-3.141z"></path>
</symbol>
<symbol id="icon-be" viewBox="0 0 32 32">
<path fill="#fff" style="fill: var(--color1, #fff)" d="M9.924 7.133c0.852 0 1.64 0.067 2.36 0.264 0.653 0.12 1.277 0.366 1.836 0.725 0.525 0.329 0.919 0.792 1.18 1.385 0.263 0.593 0.393 1.32 0.393 2.111 0 0.924-0.196 1.715-0.655 2.308-0.393 0.595-1.049 1.121-1.836 1.517 1.115 0.331 1.967 0.924 2.491 1.715 0.525 0.792 0.853 1.781 0.853 2.903 0 0.924-0.197 1.715-0.525 2.375s-0.852 1.253-1.443 1.649c-0.642 0.424-1.351 0.736-2.097 0.923-0.787 0.199-1.573 0.331-2.36 0.331h-8.788v-18.205h8.591zM9.399 14.52c0.721 0 1.312-0.197 1.771-0.527s0.656-0.924 0.656-1.649c0-0.396-0.067-0.792-0.197-1.055-0.131-0.264-0.328-0.463-0.589-0.66-0.263-0.132-0.525-0.264-0.853-0.329-0.328-0.067-0.655-0.067-1.049-0.067h-3.803v4.288l4.065-0.001zM9.596 22.304c0.393 0 0.787-0.067 1.115-0.132 0.331-0.063 0.644-0.198 0.917-0.396 0.267-0.193 0.491-0.44 0.656-0.725 0.131-0.329 0.263-0.725 0.263-1.187 0-0.924-0.263-1.584-0.787-2.045-0.525-0.396-1.247-0.593-2.099-0.593h-4.328v5.080l4.263-0.001zM22.252 22.237c0.524 0.528 1.311 0.792 2.36 0.792 0.721 0 1.377-0.197 1.901-0.527 0.525-0.396 0.853-0.792 0.984-1.188h3.213c-0.525 1.583-1.312 2.704-2.36 3.429-1.051 0.66-2.296 1.056-3.804 1.056-0.965 0.003-1.922-0.176-2.82-0.528-0.808-0.303-1.529-0.802-2.099-1.451-0.609-0.607-1.059-1.355-1.311-2.177-0.328-0.857-0.46-1.78-0.46-2.836 0-0.989 0.132-1.912 0.46-2.771 0.315-0.827 0.782-1.587 1.376-2.243 0.591-0.593 1.312-1.12 2.099-1.451 0.876-0.352 1.811-0.531 2.755-0.528 1.115 0 2.099 0.199 2.951 0.66 0.853 0.461 1.508 0.989 2.033 1.781 0.536 0.761 0.935 1.609 1.18 2.507 0.131 0.923 0.196 1.847 0.131 2.901h-9.508c0 1.056 0.393 2.045 0.919 2.573v-0.001zM26.383 15.312c-0.459-0.461-1.18-0.725-2.033-0.725-0.589 0-1.049 0.132-1.443 0.329-0.393 0.199-0.655 0.463-0.917 0.727-0.241 0.255-0.401 0.576-0.459 0.923-0.067 0.331-0.132 0.593-0.132 0.857h5.901c-0.131-0.989-0.459-1.648-0.917-2.111zM20.612 8.387h7.344v1.781h-7.343v-1.781h-0.001z"></path>
</symbol>
<symbol id="icon-br" viewBox="0 0 32 32">
<path fill="#fff" style="fill: var(--color1, #fff)" d="M26.652 15.429c-0.109-2.099-0.839-4.118-2.097-5.801-0.383 0.413-0.793 0.8-1.227 1.16-1.332 1.106-2.821 2.010-4.417 2.68 0.223 0.467 0.427 0.919 0.607 1.345v0.004c0.051 0.119 0.1 0.239 0.147 0.36 2.019-0.227 4.147-0.144 6.209 0.135 0.275 0.037 0.533 0.077 0.779 0.117zM14.139 5.496c1.299 1.831 2.498 3.732 3.589 5.693 1.631-0.643 2.979-1.453 4.064-2.356 0.377-0.31 0.731-0.647 1.061-1.007-1.919-1.614-4.346-2.497-6.853-2.493-0.624-0-1.247 0.054-1.861 0.161v0.001zM5.671 13.329c0.908-0.023 1.816-0.078 2.72-0.164 2.186-0.196 4.354-0.562 6.483-1.096-1.113-1.933-2.314-3.814-3.6-5.636-1.374 0.681-2.585 1.649-3.552 2.838s-1.666 2.574-2.051 4.058zM7.711 22.713c0.517-0.756 1.197-1.607 2.1-2.532 1.939-1.987 4.227-3.533 6.875-4.387l0.083-0.024c-0.22-0.485-0.427-0.919-0.635-1.327-2.448 0.713-5.027 1.159-7.596 1.389-1.253 0.113-2.377 0.163-3.204 0.171-0.002 2.443 0.838 4.813 2.379 6.709h-0.001zM20.007 25.887c-0.514-2.593-1.242-5.139-2.176-7.612-2.669 0.969-4.796 2.387-6.44 4.077-0.663 0.67-1.252 1.41-1.756 2.207 1.838 1.372 4.072 2.111 6.365 2.108 1.373 0.002 2.734-0.262 4.007-0.777v-0.003zM22.504 24.453c2.082-1.6 3.5-3.912 3.983-6.493-0.453-0.113-1.028-0.227-1.66-0.315-1.405-0.202-2.831-0.217-4.24-0.044 0.793 2.238 1.434 4.528 1.917 6.853v-0.001zM16 29.333c-7.364 0-13.333-5.969-13.333-13.333s5.969-13.333 13.333-13.333c7.364 0 13.333 5.969 13.333 13.333s-5.969 13.333-13.333 13.333z"></path>
</symbol>
<symbol id="icon-clock" viewBox="0 0 32 32">
<path d="M16 29.333c-7.364 0-13.333-5.969-13.333-13.333s5.969-13.333 13.333-13.333 13.333 5.969 13.333 13.333c0 7.364-5.969 13.333-13.333 13.333zM16 26.667c2.829 0 5.542-1.124 7.542-3.124s3.124-4.714 3.124-7.543-1.124-5.542-3.124-7.542c-2-2-4.713-3.124-7.542-3.124s-5.542 1.124-7.542 3.124c-2 2-3.124 4.713-3.124 7.542s1.124 5.542 3.124 7.543c2 2 4.713 3.124 7.542 3.124zM17.333 16h5.333v2.667h-8v-9.333h2.667v6.667z"></path>
</symbol>
<symbol id="icon-facebook" viewBox="0 0 32 32">
<path fill="#fff" style="fill: var(--color1, #fff)" d="M18.667 18h3.333l1.333-5.333h-4.667v-2.667c0-1.373 0-2.667 2.667-2.667h2v-4.48c-0.435-0.057-2.076-0.187-3.809-0.187-3.62 0-6.191 2.209-6.191 6.267v3.733h-4v5.333h4v11.333h5.333v-11.333z"></path>
</symbol>
<symbol id="icon-instagram" viewBox="0 0 32 32">
<path fill="#fff" style="fill: var(--color1, #fff)" d="M16 2.667c3.623 0 4.075 0.013 5.496 0.080 1.42 0.067 2.387 0.289 3.237 0.62 0.88 0.339 1.621 0.797 2.363 1.537 0.678 0.667 1.203 1.473 1.537 2.363 0.329 0.849 0.553 1.817 0.62 3.237 0.063 1.421 0.080 1.873 0.080 5.496s-0.013 4.075-0.080 5.496c-0.067 1.42-0.291 2.387-0.62 3.237-0.334 0.89-0.859 1.697-1.537 2.363-0.667 0.678-1.473 1.202-2.363 1.537-0.849 0.329-1.817 0.553-3.237 0.62-1.421 0.063-1.873 0.080-5.496 0.080s-4.075-0.013-5.496-0.080c-1.42-0.067-2.387-0.291-3.237-0.62-0.89-0.334-1.697-0.859-2.363-1.537-0.678-0.666-1.203-1.473-1.537-2.363-0.331-0.849-0.553-1.817-0.62-3.237-0.063-1.421-0.080-1.873-0.080-5.496s0.013-4.075 0.080-5.496c0.067-1.421 0.289-2.387 0.62-3.237 0.334-0.89 0.858-1.697 1.537-2.363 0.666-0.678 1.473-1.203 2.363-1.537 0.851-0.331 1.816-0.553 3.237-0.62 1.421-0.063 1.873-0.080 5.496-0.080zM16 9.333c-1.768 0-3.464 0.702-4.714 1.953s-1.953 2.946-1.953 4.714c0 1.768 0.702 3.464 1.953 4.714s2.946 1.953 4.714 1.953 3.464-0.702 4.714-1.953c1.25-1.25 1.953-2.946 1.953-4.714s-0.702-3.464-1.953-4.714c-1.25-1.25-2.946-1.953-4.714-1.953zM24.667 9c0-0.442-0.176-0.866-0.488-1.179s-0.737-0.488-1.179-0.488-0.866 0.176-1.178 0.488c-0.313 0.313-0.488 0.737-0.488 1.179s0.176 0.866 0.488 1.179c0.312 0.313 0.736 0.488 1.178 0.488s0.866-0.176 1.179-0.488c0.312-0.313 0.488-0.736 0.488-1.179zM16 12c1.061 0 2.078 0.421 2.828 1.172s1.172 1.768 1.172 2.828c0 1.061-0.421 2.078-1.172 2.828s-1.768 1.172-2.828 1.172c-1.061 0-2.078-0.421-2.828-1.172s-1.172-1.768-1.172-2.828c0-1.061 0.421-2.078 1.172-2.828s1.768-1.172 2.828-1.172z"></path>
</symbol>
<symbol id="icon-twitter" viewBox="0 0 32 32">
<path fill="#fff" style="fill: var(--color1, #fff)" d="M29.549 7.541c-1.018 0.45-2.097 0.746-3.203 0.877 1.165-0.697 2.037-1.793 2.453-3.085-1.093 0.651-2.292 1.107-3.541 1.353-0.839-0.898-1.951-1.493-3.164-1.694s-2.457 0.005-3.541 0.585c-1.084 0.58-1.945 1.502-2.451 2.622s-0.627 2.376-0.345 3.572c-2.217-0.111-4.386-0.687-6.366-1.691s-3.727-2.413-5.127-4.136c-0.496 0.851-0.756 1.819-0.755 2.804 0 1.933 0.984 3.641 2.48 4.641-0.885-0.028-1.751-0.267-2.525-0.697v0.069c0 1.288 0.446 2.535 1.261 3.532s1.95 1.681 3.212 1.936c-0.822 0.223-1.684 0.256-2.52 0.096 0.356 1.108 1.049 2.078 1.983 2.772s2.062 1.080 3.226 1.101c-1.157 0.908-2.481 1.58-3.897 1.976s-2.897 0.509-4.357 0.333c2.549 1.639 5.516 2.51 8.547 2.507 10.257 0 15.867-8.497 15.867-15.867 0-0.24-0.007-0.483-0.017-0.72 1.092-0.789 2.034-1.767 2.783-2.887l-0.001-0.001z"></path>
</symbol>
<symbol id="icon-weather" viewBox="0 0 32 32">
<path d="M8.111 17.334c-0.193-1.147-0.133-2.322 0.175-3.443s0.856-2.162 1.607-3.050c0.751-0.888 1.686-1.601 2.741-2.090s2.204-0.743 3.366-0.743c1.163 0 2.312 0.253 3.366 0.743s1.99 1.203 2.741 2.090 1.299 1.929 1.607 3.050c0.308 1.121 0.367 2.296 0.175 3.443h-15.779zM2.667 20h13.333v2.667h-13.333v-2.667zM18.667 20h10.667v2.667h-10.667v-2.667zM21.333 25.333h5.333v2.667h-5.333v-2.667zM5.333 25.333h13.333v2.667h-13.333v-2.667zM14.667 1.333h2.667v4h-2.667v-4zM4.687 6.572l1.885-1.885 2.828 2.828-1.885 1.885-2.828-2.828zM25.427 4.687l1.885 1.885-2.828 2.828-1.885-1.885 2.828-2.828zM30.667 14.667v2.667h-4v-2.667h4zM5.333 14.667v2.667h-4v-2.667h4z"></path>
</symbol>
<symbol id="icon-youtube" viewBox="0 0 32 32">
<path fill="#fff" style="fill: var(--color1, #fff)" d="M28.724 8.664c0.609 2.376 0.609 7.336 0.609 7.336s0 4.96-0.609 7.336c-0.339 1.313-1.329 2.347-2.584 2.696-2.279 0.635-10.14 0.635-10.14 0.635s-7.857 0-10.14-0.635c-1.26-0.355-2.249-1.387-2.584-2.696-0.609-2.376-0.609-7.336-0.609-7.336s0-4.96 0.609-7.336c0.339-1.313 1.329-2.347 2.584-2.696 2.283-0.635 10.14-0.635 10.14-0.635s7.861 0 10.14 0.635c1.26 0.355 2.249 1.387 2.584 2.696zM13.333 20.667l8-4.667-8-4.667v9.333z"></path>
</symbol>
<symbol id="icon-mag-glass" viewBox="0 0 32 32">
<path fill="#fff" style="fill: var(--color1, #fff)" opacity="0.3" d="M23.302 21.236l6.225 6.225-2.065 2.065-6.225-6.225c-2.298 1.862-5.178 2.88-8.145 2.88-7.244 0-13.091-5.876-13.091-13.091 0-7.244 5.847-13.091 13.091-13.091 7.215 0 13.091 5.847 13.091 13.091 0 2.967-1.018 5.847-2.88 8.145zM20.393 20.16c1.833-1.891 2.88-4.422 2.88-7.069 0-5.644-4.567-10.182-10.182-10.182-5.644 0-10.182 4.538-10.182 10.182 0 5.615 4.538 10.182 10.182 10.182 2.647 0 5.178-1.047 7.069-2.88l0.233-0.233z"></path>
</symbol>
</defs>
</svg>
